<svg width="15" height="14" viewBox="0 0 15 14" fill="none" xmlns="http://www.w3.org/2000/svg">
<g clip-path="url(#clip0_80_491)">
<path d="M7.61463 9.37915H7.61982" stroke="#534FEB" stroke-width="0.692667" stroke-linecap="round" stroke-linejoin="round"/>
<path d="M7.61475 7.64746L7.61475 4.76135" stroke="#534FEB" stroke-width="0.692667" stroke-linecap="round" stroke-linejoin="round"/>
<path d="M10.1018 2.67416C9.76068 2.67416 9.5901 2.67416 9.4347 2.6165C9.41312 2.60849 9.39185 2.59968 9.37092 2.59008C9.22026 2.52097 9.09965 2.40035 8.85842 2.15912C8.30319 1.60389 8.02557 1.32628 7.68398 1.30068C7.63806 1.29724 7.59193 1.29724 7.546 1.30068C7.20442 1.32628 6.9268 1.60389 6.37157 2.15912C6.13034 2.40035 6.00972 2.52097 5.85907 2.59008C5.83814 2.59968 5.81687 2.60849 5.79528 2.6165C5.63988 2.67416 5.46931 2.67416 5.12815 2.67416H5.06522C4.19483 2.67416 3.75963 2.67416 3.48923 2.94456C3.21884 3.21495 3.21884 3.65015 3.21884 4.52055V4.58347C3.21884 4.92463 3.21884 5.09521 3.16118 5.25061C3.15317 5.27219 3.14436 5.29347 3.13476 5.31439C3.06564 5.46505 2.94503 5.58566 2.7038 5.8269C2.14857 6.38212 1.87095 6.65974 1.84535 7.00133C1.84191 7.04726 1.84191 7.09338 1.84535 7.13931C1.87095 7.4809 2.14857 7.75851 2.7038 8.31374C2.94503 8.55497 3.06564 8.67559 3.13476 8.82624C3.14436 8.84717 3.15317 8.86844 3.16118 8.89003C3.21884 9.04543 3.21884 9.216 3.21884 9.55716V9.62009C3.21884 10.4905 3.21884 10.9257 3.48923 11.1961C3.75963 11.4665 4.19483 11.4665 5.06522 11.4665H5.12815C5.46931 11.4665 5.63988 11.4665 5.79528 11.5241C5.81687 11.5321 5.83814 11.541 5.85907 11.5506C6.00972 11.6197 6.13034 11.7403 6.37157 11.9815C6.9268 12.5367 7.20442 12.8144 7.546 12.84C7.59193 12.8434 7.63806 12.8434 7.68398 12.84C8.02557 12.8144 8.30319 12.5367 8.85842 11.9815C9.09965 11.7403 9.22026 11.6197 9.37092 11.5506C9.39185 11.541 9.41312 11.5321 9.4347 11.5241C9.5901 11.4665 9.76068 11.4665 10.1018 11.4665H10.1648C11.0352 11.4665 11.4704 11.4665 11.7408 11.1961C12.0112 10.9257 12.0112 10.4905 12.0112 9.62009V9.55716C12.0112 9.216 12.0112 9.04543 12.0688 8.89003C12.0768 8.86844 12.0856 8.84717 12.0952 8.82624C12.1643 8.67559 12.285 8.55497 12.5262 8.31374C13.0814 7.75851 13.359 7.4809 13.3846 7.13931C13.3881 7.09338 13.3881 7.04726 13.3846 7.00133C13.359 6.65974 13.0814 6.38212 12.5262 5.8269C12.285 5.58566 12.1643 5.46505 12.0952 5.31439C12.0856 5.29347 12.0768 5.27219 12.0688 5.25061C12.0112 5.09521 12.0112 4.92463 12.0112 4.58347V4.52055C12.0112 3.65015 12.0112 3.21495 11.7408 2.94456C11.4704 2.67416 11.0352 2.67416 10.1648 2.67416H10.1018Z" stroke="#534FEB" stroke-width="0.692667"/>
</g>
<defs>
<clipPath id="clip0_80_491">
<rect width="13.8533" height="13.8533" fill="white" transform="translate(0.688477 0.143799)"/>
</clipPath>
</defs>
</svg>
