<svg width="14" height="14" viewBox="0 0 14 14" fill="none" xmlns="http://www.w3.org/2000/svg">
<g clip-path="url(#clip0_53_133)">
<path d="M1.20996 9.23497C1.20996 9.23497 2.24627 8.802 4.09607 8.802C6.98218 8.802 9.29107 10.5337 12.7544 10.5337" stroke="#534FEB" stroke-width="0.692667" stroke-linecap="round" stroke-linejoin="round"/>
<path d="M1.20996 12.2654H12.7544" stroke="#534FEB" stroke-width="0.692667" stroke-linecap="round" stroke-linejoin="round"/>
<path d="M7.32512 2.00663C5.68254 2.47768 4.61487 4.09884 4.67582 5.84367C4.68848 6.20607 4.69481 6.38726 4.84966 6.4674C5.00451 6.54753 5.16524 6.43396 5.48669 6.2068L6.20335 5.70038C6.31098 5.62432 6.43876 5.58767 6.56751 5.59594L8.2508 5.70408L9.65806 4.70965C9.76569 4.63359 9.89347 4.59694 10.0222 4.60522L10.9004 4.66163C11.2772 4.68583 11.4655 4.69794 11.5591 4.55288C11.6526 4.40782 11.5766 4.25099 11.4245 3.93733C10.6681 2.37736 8.9767 1.53299 7.32512 2.00663Z" stroke="#534FEB" stroke-width="0.692667" stroke-linecap="round" stroke-linejoin="round"/>
<path d="M8.42499 5.62726L9.57943 9.95643M7.14685 1.87532L6.98193 1.2981" stroke="#534FEB" stroke-width="0.692667" stroke-linecap="round" stroke-linejoin="round"/>
</g>
<defs>
<clipPath id="clip0_53_133">
<rect width="13.8533" height="13.8533" fill="white" transform="translate(0.0556641 0.143799)"/>
</clipPath>
</defs>
</svg>
