<svg width="15" height="14" viewBox="0 0 15 14" fill="none" xmlns="http://www.w3.org/2000/svg">
<path d="M7.2478 8.80225L7.2478 9.66808" stroke="#534FEB" stroke-width="0.692667" stroke-linecap="round" stroke-linejoin="round"/>
<path d="M2.05273 6.49316L2.14098 8.1459C2.23579 10.2318 2.2832 11.2748 2.95254 11.9144C3.62187 12.554 4.66591 12.554 6.75399 12.554H7.74148C9.82956 12.554 10.8736 12.554 11.5429 11.9144C12.2123 11.2748 12.2597 10.2318 12.3545 8.1459L12.4427 6.49316" stroke="#534FEB" stroke-width="0.692667" stroke-linecap="round" stroke-linejoin="round"/>
<path d="M1.96456 6.17181C2.94543 8.03703 5.15776 8.80218 7.24777 8.80218C9.33778 8.80218 11.5501 8.03703 12.531 6.17181C12.9992 5.28145 12.6447 3.60718 11.4915 3.60718H3.00403C1.85088 3.60718 1.49634 5.28145 1.96456 6.17181Z" stroke="#534FEB" stroke-width="0.692667"/>
<path d="M9.5565 3.60719L9.50553 3.42879C9.25154 2.53985 9.12455 2.09537 8.82221 1.84114C8.51988 1.58691 8.11829 1.58691 7.31512 1.58691H7.1801C6.37692 1.58691 5.97534 1.58691 5.673 1.84114C5.37067 2.09537 5.24368 2.53985 4.98969 3.42879L4.93872 3.60719" stroke="#534FEB" stroke-width="0.692667"/>
</svg>
