<svg width="14" height="14" viewBox="0 0 14 14" fill="none" xmlns="http://www.w3.org/2000/svg">
<g clip-path="url(#clip0_80_483)">
<path d="M9.23985 12.8424C8.62451 12.1239 7.81622 11.688 6.93096 11.688C6.0457 11.688 5.23741 12.1239 4.62207 12.8424" stroke="#534FEB" stroke-width="0.692667" stroke-linecap="round"/>
<path d="M6.93152 7.64746C6.19953 7.64746 5.4256 7.77407 4.8189 7.94347C4.36207 8.07103 3.99459 8.6527 4.05118 9.1249C4.07214 9.29985 4.22279 9.37913 4.3812 9.37913H9.48185C9.64025 9.37913 9.7909 9.29985 9.81186 9.1249C9.86846 8.6527 9.50097 8.07103 9.04414 7.94347C8.43744 7.77407 7.66351 7.64746 6.93152 7.64746Z" stroke="#534FEB" stroke-width="0.692667" stroke-linecap="round"/>
<path d="M12.1263 5.91577C11.4887 5.91577 10.9718 6.43263 10.9718 7.07022V7.64744C10.9718 8.28502 10.455 8.80188 9.81738 8.80188" stroke="#534FEB" stroke-width="0.692667" stroke-linecap="round" stroke-linejoin="round"/>
<path d="M1.73652 5.91577C2.3741 5.91577 2.89097 6.43263 2.89097 7.07022V7.64744C2.89097 8.28502 3.40783 8.80188 4.04541 8.80188" stroke="#534FEB" stroke-width="0.692667" stroke-linecap="round" stroke-linejoin="round"/>
<path d="M6.93115 9.37915V12.8425" stroke="#534FEB" stroke-width="0.692667" stroke-linecap="round" stroke-linejoin="round"/>
<path d="M7.40469 5.91587H6.45835C5.649 5.91587 5.24433 5.91587 4.95158 5.67137C4.65883 5.42686 4.56069 5.0069 4.36439 4.16697C4.05576 2.84637 3.90144 2.18607 4.2255 1.74208C4.54956 1.2981 5.18582 1.2981 6.45835 1.2981H7.40469C8.67722 1.2981 9.31348 1.2981 9.63754 1.74208C9.9616 2.18607 9.80729 2.84637 9.49865 4.16697C9.30236 5.0069 9.20421 5.42686 8.91146 5.67137C8.61872 5.91587 8.21404 5.91587 7.40469 5.91587Z" stroke="#534FEB" stroke-width="0.692667" stroke-linecap="round" stroke-linejoin="round"/>
<path d="M6.93115 5.91577V7.64744" stroke="#534FEB" stroke-width="0.692667" stroke-linecap="round" stroke-linejoin="round"/>
</g>
<defs>
<clipPath id="clip0_80_483">
<rect width="13.8533" height="13.8533" fill="white" transform="translate(0.00488281 0.143799)"/>
</clipPath>
</defs>
</svg>
