<svg width="15" height="14" viewBox="0 0 15 14" fill="none" xmlns="http://www.w3.org/2000/svg">
<g clip-path="url(#clip0_53_125)">
<ellipse cx="7.29851" cy="7.64764" rx="5.195" ry="5.195" stroke="#534FEB" stroke-width="0.692667" stroke-linecap="round"/>
<path d="M3.25796 11.1108L2.10352 12.2653M11.3391 11.1108L12.4935 12.2653" stroke="#534FEB" stroke-width="0.692667" stroke-linecap="round" stroke-linejoin="round"/>
<path d="M11.3391 2.20409L11.6829 2.03222C12.1708 1.78827 12.3541 1.81619 12.742 2.20409C13.1299 2.59198 13.1578 2.77527 12.9138 3.26318L12.742 3.60691M3.25803 2.20409L2.9143 2.03222C2.4264 1.78827 2.24311 1.81619 1.85521 2.20409C1.46731 2.59198 1.43939 2.77527 1.68334 3.26318L1.85521 3.60691" stroke="#534FEB" stroke-width="0.692667" stroke-linecap="round"/>
<path d="M7.29883 5.6272V7.93609L8.45327 9.09053" stroke="#534FEB" stroke-width="0.692667" stroke-linecap="round" stroke-linejoin="round"/>
<path d="M7.29883 2.16393V1.2981" stroke="#534FEB" stroke-width="0.692667" stroke-linecap="round" stroke-linejoin="round"/>
<path d="M6.14453 1.2981H8.45342" stroke="#534FEB" stroke-width="0.692667" stroke-linecap="round" stroke-linejoin="round"/>
</g>
<defs>
<clipPath id="clip0_53_125">
<rect width="13.8533" height="13.8533" fill="white" transform="translate(0.37207 0.143799)"/>
</clipPath>
</defs>
</svg>
