<svg width="19" height="19" viewBox="0 0 19 19" fill="none" xmlns="http://www.w3.org/2000/svg">
<path d="M9.15592 8.6512C10.9628 8.6512 12.4276 7.18644 12.4276 5.37956C12.4276 3.57268 10.9628 2.10791 9.15592 2.10791C7.34904 2.10791 5.88428 3.57268 5.88428 5.37956C5.88428 7.18644 7.34904 8.6512 9.15592 8.6512Z" fill="white"/>
<path d="M11.2527 14.6321H14.7978V15.3411H11.2527V14.6321Z" fill="white"/>
<path d="M8.21394 15.6451V17.1644C8.21394 17.2988 8.2673 17.4276 8.36228 17.5226C8.45726 17.6175 8.58607 17.6709 8.72039 17.6709H17.33C17.4643 17.6709 17.5931 17.6175 17.6881 17.5226C17.7831 17.4276 17.8364 17.2988 17.8364 17.1644V12.1C17.8364 11.9657 17.7831 11.8368 17.6881 11.7419C17.5931 11.6469 17.4643 11.5935 17.33 11.5935H13.7849V10.8491C13.7849 10.7147 13.7315 10.5859 13.6365 10.4909C13.5415 10.396 13.4127 10.3426 13.2784 10.3426C13.1441 10.3426 13.0153 10.396 12.9203 10.4909C12.8253 10.5859 12.772 10.7147 12.772 10.8491V11.5935H11.7591V9.78045C10.8985 9.63963 10.028 9.5685 9.15594 9.56775C7.23286 9.55957 5.33132 9.97272 3.58502 10.7782C3.2976 10.9138 3.05513 11.129 2.88636 11.3983C2.7176 11.6676 2.62963 11.9797 2.6329 12.2975V15.6451H8.21394ZM16.8235 16.658H9.22684V12.6064H12.772V12.8191C12.772 12.9535 12.8253 13.0823 12.9203 13.1772C13.0153 13.2722 13.1441 13.3256 13.2784 13.3256C13.4127 13.3256 13.5415 13.2722 13.6365 13.1772C13.7315 13.0823 13.7849 12.9535 13.7849 12.8191V12.6064H16.8235V16.658Z" fill="white"/>
</svg>
