<svg width="12" height="15" viewBox="0 0 12 15" fill="none" xmlns="http://www.w3.org/2000/svg">
<path d="M12 8.72727C12 8.95455 11.9125 9.14773 11.7375 9.30682C11.5625 9.46591 11.35 9.54545 11.1 9.54545C10.7812 9.54545 10.5312 9.4233 10.35 9.17898L8.22188 6.27273H7.8V7.39773L10.1156 10.9006C10.1719 10.9858 10.2 11.0795 10.2 11.1818C10.2 11.3295 10.1406 11.4574 10.0219 11.5653C9.90313 11.6733 9.7625 11.7273 9.6 11.7273H7.8V14.0455C7.8 14.3068 7.69688 14.5312 7.49063 14.7188C7.28438 14.9062 7.0375 15 6.75 15H5.25C4.9625 15 4.71563 14.9062 4.50938 14.7188C4.30313 14.5312 4.2 14.3068 4.2 14.0455V11.7273H2.4C2.2375 11.7273 2.09688 11.6733 1.97813 11.5653C1.85938 11.4574 1.8 11.3295 1.8 11.1818C1.8 11.0795 1.82813 10.9858 1.88438 10.9006L4.2 7.39773V6.27273H3.77813L1.65 9.17898C1.46875 9.4233 1.21875 9.54545 0.9 9.54545C0.65 9.54545 0.4375 9.46591 0.2625 9.30682C0.0875 9.14773 0 8.95455 0 8.72727C0 8.5625 0.05 8.41193 0.15 8.27557L2.55 5.00284C3.00625 4.39489 3.55625 4.09091 4.2 4.09091H7.8C8.44375 4.09091 8.99375 4.39489 9.45 5.00284L11.85 8.27557C11.95 8.41193 12 8.5625 12 8.72727ZM8.1 1.90909C8.1 2.4375 7.89531 2.88778 7.48594 3.25994C7.07656 3.6321 6.58125 3.81818 6 3.81818C5.41875 3.81818 4.92344 3.6321 4.51406 3.25994C4.10469 2.88778 3.9 2.4375 3.9 1.90909C3.9 1.38068 4.10469 0.930398 4.51406 0.558239C4.92344 0.18608 5.41875 0 6 0C6.58125 0 7.07656 0.18608 7.48594 0.558239C7.89531 0.930398 8.1 1.38068 8.1 1.90909Z" fill="#5D5AEC"/>
</svg>
