<svg width="19" height="20" viewBox="0 0 19 20" fill="none" xmlns="http://www.w3.org/2000/svg">
<path d="M9.11605 0.835938C7.31306 0.835938 5.55057 1.38311 4.05145 2.40828C2.55232 3.43344 1.38389 4.89054 0.693922 6.59532C0.00394981 8.3001 -0.176578 10.176 0.175166 11.9858C0.526911 13.7956 1.39513 15.458 2.67003 16.7627C3.94493 18.0675 5.56926 18.9561 7.3376 19.3161C9.10594 19.6761 10.9389 19.4913 12.6046 18.7852C14.2703 18.079 15.6941 16.8832 16.6958 15.3489C17.6974 13.8147 18.2321 12.0109 18.2321 10.1656C18.2321 7.69125 17.2717 5.3182 15.5621 3.56854C13.8525 1.81889 11.5338 0.835938 9.11605 0.835938ZM8.9907 15.9092C8.80477 15.9092 8.62301 15.8528 8.46842 15.7471C8.31382 15.6414 8.19332 15.4911 8.12217 15.3153C8.05102 15.1395 8.0324 14.946 8.06867 14.7594C8.10495 14.5728 8.19448 14.4013 8.32596 14.2668C8.45743 14.1322 8.62494 14.0406 8.8073 14.0035C8.98966 13.9663 9.17868 13.9854 9.35046 14.0582C9.52224 14.131 9.66906 14.2544 9.77236 14.4126C9.87566 14.5708 9.93079 14.7568 9.93079 14.9471C9.93079 15.2023 9.83175 15.447 9.65545 15.6274C9.47915 15.8079 9.24003 15.9092 8.9907 15.9092ZM9.77126 11.2094V12.2123C9.77007 12.4163 9.69268 12.6121 9.55496 12.7595C9.41724 12.907 9.22963 12.9949 9.03058 13.0054H8.96791C8.86717 13.0093 8.76667 12.9927 8.67222 12.9566C8.57777 12.9206 8.49123 12.8657 8.4176 12.7952C8.34397 12.7248 8.28471 12.6401 8.24323 12.546C8.20176 12.452 8.17889 12.3505 8.17596 12.2473V10.638C8.16656 10.5445 8.17582 10.45 8.20318 10.3603C8.23053 10.2706 8.2754 10.1875 8.33507 10.1161C8.39474 10.0446 8.46797 9.98636 8.55031 9.94476C8.63265 9.90316 8.72239 9.87912 8.81408 9.87408C9.70859 9.80411 11.1956 9.46591 11.1956 7.97899C11.1956 6.9119 10.3923 6.18885 9.24139 6.18885C8.8051 6.19623 8.37553 6.3001 7.98215 6.49335C7.58878 6.68659 7.2409 6.96464 6.96238 7.30842C6.85705 7.42297 6.7208 7.50287 6.57098 7.53796C6.42115 7.57305 6.26452 7.56175 6.12098 7.50549C5.97745 7.44924 5.85351 7.35056 5.76492 7.22202C5.67633 7.09348 5.62709 6.94088 5.62346 6.78362C5.62682 6.5638 5.71488 6.35423 5.86846 6.20052C6.29157 5.69919 6.81696 5.29892 7.4076 5.02791C7.99824 4.7569 8.63976 4.62174 9.28697 4.63196C11.3951 4.63196 12.865 5.9731 12.865 7.89735C12.865 9.67583 11.7426 10.8654 9.77126 11.2094Z" fill="white"/>
</svg>
