<svg width="25" height="25" viewBox="0 0 25 25" fill="none" xmlns="http://www.w3.org/2000/svg">
<path d="M9 21.3846C9 21.764 9.384 22 10 22C10.6175 22 11 21.764 11 21.3846V15.5385H12V21.3846C12 21.7634 12.3835 22 13 22C13.6165 22 14 21.764 14 21.3846V11.5385H14.5V15.1735C14.5 15.9105 16.003 15.9105 16 15.1735V11.4342C16 10.62 15.047 10 13.5 10H9.5C8.09 10 7 10.5289 7 11.4114V15.2308C7 15.8462 8.5 15.8462 8.5 15.2308V11.5385H9V21.3846Z" fill="#5D5AEC"/>
<path d="M11.4375 9.375C12.5766 9.375 13.5 8.45159 13.5 7.3125C13.5 6.17341 12.5766 5.25 11.4375 5.25C10.2984 5.25 9.375 6.17341 9.375 7.3125C9.375 8.45159 10.2984 9.375 11.4375 9.375Z" fill="#5D5AEC"/>
</svg>
