<svg width="17" height="16" viewBox="0 0 17 16" fill="none" xmlns="http://www.w3.org/2000/svg">
<path d="M13.5637 13.451L14.0955 12.9192L12.6711 11.4948V9.36775H11.9115V11.7987L13.5637 13.451ZM12.2913 15.4451C11.2404 15.4451 10.3448 15.0747 9.60434 14.3337C8.86392 13.5928 8.49345 12.6971 8.49294 11.6468C8.49244 10.5964 8.8629 9.70074 9.60434 8.95981C10.3458 8.21888 11.2414 7.84841 12.2913 7.84841C13.3412 7.84841 14.2371 8.21888 14.979 8.95981C15.721 9.70074 16.0912 10.5964 16.0896 11.6468C16.0881 12.6971 15.7177 13.593 14.9783 14.3345C14.2388 15.0759 13.3432 15.4461 12.2913 15.4451ZM3.93492 4.80973H11.5316V3.29039H3.93492V4.80973ZM7.48638 13.9258H0.89624V0.251709H14.5703V6.86084C14.2031 6.68358 13.8327 6.55064 13.4589 6.46201C13.0852 6.37339 12.6959 6.32907 12.2913 6.32907C12.152 6.32907 12.0221 6.33236 11.9016 6.33895C11.7811 6.34553 11.6577 6.36123 11.5316 6.38605V6.32907H3.93492V7.84841H8.5879C8.36 8.06365 8.15438 8.29788 7.97105 8.55111C7.78772 8.80433 7.62616 9.07655 7.48638 9.36775H3.93492V10.8871H7.03058C7.00526 11.0137 6.98956 11.1373 6.98348 11.2578C6.9774 11.3783 6.97411 11.508 6.9736 11.6468C6.9736 12.0646 7.01159 12.454 7.08755 12.8151C7.16352 13.1762 7.29646 13.5464 7.48638 13.9258Z" fill="white"/>
</svg>
