<svg width="16" height="16" viewBox="0 0 16 16" fill="none" xmlns="http://www.w3.org/2000/svg">
<path d="M14.8402 3.2042L8.00319 0.925188C7.82809 0.866083 7.63844 0.866083 7.46335 0.925188L0.626314 3.2042C0.463175 3.25823 0.320116 3.36019 0.215808 3.49677C0.111501 3.63334 0.0507915 3.7982 0.0416049 3.9698C0.0408192 3.98475 0.0408192 3.99973 0.0416049 4.01467V9.7122C0.0416049 9.93886 0.131646 10.1562 0.29192 10.3165C0.452194 10.4768 0.669572 10.5668 0.896234 10.5668C1.1229 10.5668 1.34027 10.4768 1.50055 10.3165C1.66082 10.1562 1.75086 9.93886 1.75086 9.7122V5.20047L3.43947 5.7631C2.91541 6.76622 2.75967 7.92134 2.99937 9.02743C3.23907 10.1335 3.85902 11.1205 4.75132 11.8167C3.58363 12.3925 2.5954 13.2764 1.8933 14.3728C1.83008 14.4667 1.78616 14.5723 1.7641 14.6834C1.74205 14.7945 1.7423 14.9089 1.76483 15.0199C1.78736 15.1309 1.83174 15.2363 1.89537 15.33C1.959 15.4237 2.04062 15.5038 2.13548 15.5657C2.23035 15.6276 2.33657 15.67 2.44796 15.6904C2.55936 15.7109 2.67371 15.709 2.78438 15.6849C2.89504 15.6608 2.9998 15.6149 3.09258 15.5499C3.18536 15.485 3.26429 15.4022 3.32481 15.3065C4.3411 13.7425 5.95279 12.8458 7.73327 12.8458C9.51375 12.8458 11.1254 13.7425 12.1453 15.3065C12.2058 15.4022 12.2847 15.485 12.3775 15.5499C12.4703 15.6149 12.5751 15.6608 12.6857 15.6849C12.7964 15.709 12.9107 15.7109 13.0221 15.6904C13.1335 15.67 13.2397 15.6276 13.3346 15.5657C13.4295 15.5038 13.5111 15.4237 13.5747 15.33C13.6384 15.2363 13.6827 15.1309 13.7053 15.0199C13.7278 14.9089 13.728 14.7945 13.706 14.6834C13.6839 14.5723 13.64 14.4667 13.5768 14.3728C12.874 13.2751 11.8845 12.3905 10.7152 11.8146C11.6075 11.1184 12.2275 10.1314 12.4672 9.02529C12.7069 7.9192 12.5511 6.76408 12.0271 5.76096L14.8402 4.82301C15.0102 4.76615 15.1579 4.6573 15.2627 4.51186C15.3674 4.36642 15.4237 4.19175 15.4237 4.01254C15.4237 3.83333 15.3674 3.65865 15.2627 3.51321C15.1579 3.36777 15.0102 3.25892 14.8402 3.20206V3.2042ZM7.73327 2.63445L11.8675 4.01467L7.73327 5.39276L3.60256 4.01467L7.73327 2.63445ZM10.8669 8.00294C10.867 8.48968 10.7537 8.96974 10.536 9.40508C10.3183 9.84042 10.0022 10.2191 9.61273 10.511C9.22325 10.8029 8.77113 11.0001 8.2922 11.0869C7.81327 11.1737 7.3207 11.1478 6.85354 11.0112C6.38638 10.8745 5.95747 10.6309 5.60082 10.2997C5.24417 9.96847 4.96957 9.55872 4.79881 9.10292C4.62805 8.64712 4.56581 8.15781 4.61703 7.67378C4.66824 7.18975 4.83151 6.7243 5.09389 6.31434L7.46335 7.10416C7.63848 7.163 7.82805 7.163 8.00319 7.10416L10.3726 6.31434C10.6958 6.8182 10.8674 7.40434 10.8669 8.00294Z" fill="white"/>
</svg>
