<svg width="19" height="20" viewBox="0 0 19 20" fill="none" xmlns="http://www.w3.org/2000/svg">
<path d="M12.617 0.743213C9.50766 0.743213 7.00195 3.30766 7.00195 6.48986C7.00195 6.65867 7.02792 6.8871 7.04616 7.09614L1.03596 13.2465C0.707659 13.5803 0.447116 13.9773 0.269323 14.4146C0.0915308 14.8518 0 15.3208 0 15.7944C0 16.268 0.0915308 16.737 0.269323 17.1743C0.447116 17.6115 0.707659 18.0085 1.03596 18.3423C1.36213 18.6783 1.75001 18.945 2.17727 19.1269C2.60454 19.3089 3.06275 19.4026 3.52553 19.4026C3.98831 19.4026 4.44652 19.3089 4.87378 19.1269C5.30105 18.945 5.68893 18.6783 6.0151 18.3423L12.0246 12.1913C12.2282 12.2099 12.4528 12.2365 12.617 12.2365C15.7263 12.2365 18.232 9.67207 18.232 6.48986C18.2357 5.56394 18.0091 4.6523 17.5737 3.84066L17.135 3.01027L16.4773 3.68406L13.4501 6.75852L12.3538 5.63649L15.3578 2.53904L16.0176 1.86525L15.2055 1.41629C14.4124 0.970916 13.5217 0.739298 12.617 0.743213ZM12.617 2.17988C12.9581 2.17988 13.2122 2.33073 13.5154 2.40471L10.8623 5.12001L10.3569 5.63721L10.8623 6.1307L12.9679 8.28569L13.4508 8.80289L13.9548 8.28569L16.6093 5.5704C16.6816 5.88072 16.8283 6.14076 16.8283 6.48986C16.8283 8.91064 14.9823 10.7999 12.617 10.7999C12.3362 10.7999 12.1116 10.7999 11.9362 10.7546L11.5642 10.6425L11.2792 10.9349L5.02755 17.3331C4.16424 18.2166 2.88682 18.2166 2.0235 17.3331L2.00104 17.3101C1.15878 16.4265 1.1658 15.1335 2.0221 14.2572L8.27376 7.85972L8.55942 7.56808L8.44852 7.18736C8.40641 7.00778 8.40501 6.77792 8.40501 6.49058C8.40501 4.06981 10.251 2.18059 12.6163 2.18059L12.617 2.17988Z" fill="white"/>
</svg>
