<svg width="25" height="25" viewBox="0 0 25 25" fill="none" xmlns="http://www.w3.org/2000/svg">
<path d="M20.962 17.163C22.0725 17.163 22.9811 16.2544 22.9811 15.1439V4.03845C22.9811 2.92791 22.0725 2.01929 20.962 2.01929H10.3613C10.6642 2.62504 10.8661 3.33175 10.8661 4.03845H20.962V15.1439H11.8757V17.163M15.914 7.0672V9.08637H9.85654V22.211H7.83738V16.1535H5.81821V22.211H3.79904V14.1343H2.28467V9.08637C2.28467 7.97583 3.19329 7.0672 4.30383 7.0672H15.914ZM8.84696 4.03845C8.84696 5.149 7.93833 6.05762 6.82779 6.05762C5.71725 6.05762 4.80863 5.149 4.80863 4.03845C4.80863 2.92791 5.71725 2.01929 6.82779 2.01929C7.93833 2.01929 8.84696 2.92791 8.84696 4.03845ZM17.9332 6.05762H19.9524V14.1343H17.9332V6.05762ZM14.9045 10.096H16.9236V14.1343H14.9045V10.096ZM11.8757 10.096H13.8949V14.1343H11.8757V10.096Z" fill="white"/>
</svg>
